<svg width="6" height="6" viewBox="0 0 6 6" fill="none" xmlns="http://www.w3.org/2000/svg">
<g clip-path="url(#clip0_0_143)">
<circle cx="3.12068" cy="3.67049" r="2.3275" fill="#473BF0"/>
<path d="M3.46617 4.37472C3.46011 4.38836 3.45481 4.40276 3.45026 4.41791C3.44572 4.43306 3.44344 4.44594 3.44344 4.45655C3.44344 4.47473 3.44723 4.48685 3.45481 4.49292C3.4639 4.49898 3.47526 4.50201 3.4889 4.50201C3.51012 4.50201 3.53588 4.4914 3.56618 4.47019C3.59649 4.44897 3.62831 4.41791 3.66165 4.377L4.07759 3.86331L4.13442 3.90877L3.6321 4.52928C3.59573 4.57474 3.56164 4.61262 3.52981 4.64293C3.49799 4.67324 3.46769 4.69748 3.4389 4.71566C3.41162 4.73233 3.38359 4.74446 3.3548 4.75203C3.32752 4.75961 3.29949 4.7634 3.2707 4.7634C3.22524 4.7634 3.18736 4.75052 3.15705 4.72476C3.12674 4.69748 3.11159 4.66339 3.11159 4.62247C3.11159 4.57701 3.11993 4.53004 3.13659 4.48155C3.15478 4.43306 3.18054 4.37245 3.21387 4.29972C3.226 4.27396 3.24039 4.24062 3.25706 4.19971C3.27524 4.15728 3.29419 4.11333 3.31388 4.06787C3.33358 4.0209 3.35328 3.97393 3.37298 3.92695C3.39268 3.87998 3.41011 3.83755 3.42526 3.79967C3.44041 3.76027 3.45253 3.72769 3.46163 3.70193C3.47223 3.67617 3.47754 3.66102 3.47754 3.65647C3.47754 3.64132 3.47223 3.63374 3.46163 3.63374C3.44799 3.63374 3.43359 3.64511 3.41844 3.66784C3.40935 3.67996 3.39116 3.70572 3.36389 3.74512C3.33661 3.78451 3.30328 3.83149 3.26388 3.88604C3.22448 3.94059 3.18205 3.99969 3.13659 4.06333C3.09114 4.12697 3.04568 4.1891 3.00022 4.24971C2.95476 4.31032 2.91157 4.36563 2.87066 4.41564C2.82975 4.46564 2.79489 4.50504 2.7661 4.53383C2.69337 4.60656 2.62897 4.66414 2.5729 4.70657C2.51684 4.74749 2.46153 4.76794 2.40698 4.76794C2.38879 4.76794 2.3691 4.76415 2.34788 4.75658C2.32515 4.749 2.3047 4.73612 2.28651 4.71794C2.26681 4.69824 2.2509 4.67172 2.23878 4.63838C2.22666 4.60353 2.2206 4.55959 2.2206 4.50655C2.2206 4.42776 2.23878 4.34063 2.27515 4.24516C2.31 4.1497 2.35849 4.05272 2.42062 3.95423C2.48274 3.85422 2.55623 3.75648 2.64109 3.66102C2.72595 3.56555 2.81762 3.47994 2.91612 3.40417C3.01613 3.32689 3.12068 3.26249 3.22979 3.21097C3.33889 3.15945 3.4495 3.12839 3.56164 3.11778V3.1587C3.4692 3.18597 3.38056 3.2284 3.2957 3.28598C3.21084 3.34205 3.13129 3.4072 3.05704 3.48145C2.98279 3.5557 2.91536 3.63526 2.85475 3.72011C2.79414 3.80345 2.74186 3.88604 2.69792 3.96786C2.65397 4.04969 2.62063 4.12773 2.59791 4.20198C2.57366 4.27471 2.56154 4.33608 2.56154 4.38609C2.56154 4.41336 2.56608 4.43609 2.57518 4.45428C2.58275 4.47246 2.59412 4.48155 2.60927 4.48155C2.62594 4.48155 2.65094 4.46791 2.68428 4.44064C2.7161 4.41336 2.75322 4.377 2.79565 4.33154C2.83808 4.28456 2.8843 4.23153 2.9343 4.17243C2.98431 4.11182 3.03507 4.04893 3.08659 3.98378C3.13811 3.91862 3.18887 3.8527 3.23888 3.78603C3.2904 3.71936 3.33813 3.65647 3.38207 3.59737C3.44875 3.50646 3.50405 3.43145 3.548 3.37235C3.59194 3.31326 3.62982 3.26628 3.66165 3.23143C3.69347 3.19506 3.72226 3.17006 3.74802 3.15642C3.77378 3.14278 3.80181 3.13597 3.83212 3.13597C3.86394 3.13597 3.88591 3.1443 3.89803 3.16097C3.91015 3.17764 3.91622 3.19809 3.91622 3.22234C3.91622 3.24204 3.91318 3.26249 3.90712 3.28371C3.90258 3.30492 3.89652 3.32386 3.88894 3.34053C3.88288 3.35417 3.86924 3.38675 3.84803 3.43827C3.82833 3.48827 3.80408 3.54888 3.77529 3.6201C3.7465 3.68981 3.71544 3.76481 3.6821 3.84513C3.65028 3.92544 3.61922 4.00196 3.58891 4.07469C3.56012 4.14591 3.53436 4.20955 3.51163 4.26562C3.4889 4.32017 3.47375 4.35654 3.46617 4.37472Z" fill="white"/>
</g>
<defs>
<clipPath id="clip0_0_143">
<rect width="4.655" height="5.23687" fill="white" transform="translate(0.793077 0.761169)"/>
</clipPath>
</defs>
</svg>
