<svg width="5" height="5" viewBox="0 0 5 5" fill="none" xmlns="http://www.w3.org/2000/svg">
<circle cx="2.57923" cy="2.67054" r="2.3275" fill="#56CD5D"/>
<path d="M3.58315 1.66684C3.57345 1.65715 3.5589 1.6523 3.53951 1.6523C3.49587 1.65715 2.47759 1.83171 2.06058 2.24872C1.74055 2.56875 1.75994 2.92757 1.81328 3.14093L2.31272 2.8015C2.33697 2.78695 2.36606 2.81605 2.34182 2.84029L1.57568 3.60643C1.55629 3.62582 1.55629 3.65492 1.57568 3.67431C1.58538 3.68401 1.59508 3.68886 1.60962 3.68886C1.62417 3.68886 1.63387 3.68401 1.64357 3.67431L1.9442 3.37368C2.00724 3.40277 2.1624 3.46581 2.36121 3.46581C2.60366 3.46581 2.82186 3.37368 3.00612 3.18942C3.45223 2.74331 3.59285 1.74928 3.5977 1.70564C3.5977 1.69109 3.59285 1.67654 3.58315 1.66684Z" fill="#2D2D2D"/>
</svg>
