<svg width="5" height="5" viewBox="0 0 5 5" fill="none" xmlns="http://www.w3.org/2000/svg">
<circle cx="2.66192" cy="2.67054" r="2.3275" fill="#FB6D45"/>
<path d="M2.15406 3.23032V2.60456L1.94179 2.02052C1.9241 1.96828 1.87157 1.93625 1.81711 1.94449C1.78538 1.95031 1.75783 1.96983 1.74178 1.99784C1.72573 2.02586 1.72281 2.05953 1.7338 2.0899L2.01052 2.85146C2.01439 2.86217 2.01125 2.87416 2.00264 2.8816C1.99402 2.88903 1.98172 2.89036 1.97172 2.88494L1.70278 2.73921C1.64128 2.70444 1.56346 2.72218 1.52305 2.78019C1.48264 2.8382 1.49288 2.91747 1.54669 2.96327L2.22575 3.54336C2.17932 3.44551 2.15485 3.33866 2.15406 3.23032Z" fill="#2D2D2D"/>
<path d="M2.51569 2.04355C2.60243 2.06167 2.67153 2.1287 2.69379 2.21633L2.69565 2.22338L2.71463 2.37961L2.80762 2.21018L2.58554 1.5856C2.56789 1.53231 2.51538 1.49965 2.46099 1.50813C2.42927 1.51405 2.40172 1.53397 2.38569 1.56257C2.36966 1.59118 2.36679 1.62556 2.37784 1.65653L2.51569 2.04355Z" fill="#2D2D2D"/>
<path d="M2.70896 2.08867L2.80762 1.85712C2.79875 1.83131 2.78208 1.8116 2.76167 1.80277C2.74126 1.79394 2.71899 1.79681 2.70026 1.81068C2.66736 1.83718 2.6536 1.89098 2.66759 1.93837L2.70896 2.08867Z" fill="#2D2D2D"/>
<path d="M2.1739 2.23414C2.18825 2.13479 2.26492 2.05154 2.37121 2.01991L2.19689 1.59102C2.17532 1.53404 2.11112 1.49914 2.04463 1.50823C2.00585 1.51452 1.97215 1.5358 1.95253 1.56637C1.93292 1.59695 1.92939 1.6337 1.9429 1.66682L2.1739 2.23414Z" fill="#2D2D2D"/>
<path d="M3.91134 2.50793C3.86202 2.48846 3.80687 2.50993 3.78044 2.55889L3.55862 2.97813C3.54483 3.00419 3.51407 3.01325 3.48993 2.99837C3.46578 2.98348 3.45738 2.95029 3.47117 2.92424L3.86794 2.17452C3.894 2.12772 3.88522 2.06749 3.8471 2.03159C3.82417 2.01128 3.79412 2.00291 3.76495 2.00871C3.73578 2.01451 3.71047 2.03389 3.69576 2.06169L3.29623 2.81661C3.2873 2.83347 3.27073 2.84391 3.25274 2.844C3.23475 2.84409 3.21808 2.83382 3.20901 2.81706C3.19995 2.80029 3.19986 2.77958 3.20878 2.76272L3.63056 1.96575C3.65683 1.91886 3.64803 1.85838 3.60972 1.82243C3.58679 1.80211 3.55672 1.79373 3.52753 1.79954C3.49835 1.80535 3.47303 1.82476 3.45834 1.85258L3.03393 2.65461C3.02014 2.68067 2.98938 2.68973 2.96524 2.67485C2.94109 2.65997 2.93269 2.62678 2.94648 2.60072L3.26839 1.99226C3.29431 1.94552 3.28553 1.88546 3.24754 1.8496C3.22461 1.82927 3.19454 1.82089 3.16536 1.82671C3.13617 1.83252 3.11085 1.85193 3.09616 1.87975L2.6858 2.66749C2.68047 2.67771 2.66965 2.68309 2.65898 2.68082C2.64832 2.67854 2.64021 2.66914 2.63888 2.65749L2.59357 2.26715C2.57983 2.20947 2.52949 2.17093 2.4745 2.17599C2.4145 2.18411 2.3699 2.23988 2.37125 2.30513V3.20043C2.37204 3.42352 2.48314 3.62918 2.66264 3.73985C2.95501 3.92846 3.33371 3.82577 3.50873 3.51042L3.95811 2.66124C3.97225 2.63452 3.97524 2.60259 3.96632 2.57336C3.95741 2.54413 3.93742 2.52035 3.91134 2.50793Z" fill="#2D2D2D"/>
</svg>
